<mxfile host="app.diagrams.net" modified="2024-02-05T13:14:26.631Z" agent="Mozilla/5.0 (Macintosh; Intel Mac OS X 10_15_7) AppleWebKit/605.1.15 (KHTML, like Gecko) Version/17.2.1 Safari/605.1.15" version="23.1.1" etag="VnhZE3ZUbHmHCxwjJ3Mm" type="github">
  <diagram name="Page-1" id="yLdyAgAhy5sliRw4i6jr">
    <mxGraphModel>
      <root>
        <mxCell id="0" />
        <mxCell id="1" parent="0" />
      </root>
    </mxGraphModel>
  </diagram>
</mxfile>
